HIERARCHY
ROOT Pelvis
{
	OFFSET 0.000000 0.000000 0.000000
	CHANNELS 6 Xposition Yposition Zposition Xrotation Yrotation Zrotation
	JOINT LeftUpLeg_virtual
	{
		OFFSET 0.000000 0.000000 0.000000
		CHANNELS 3 Xrotation Yrotation Zrotation
		JOINT LeftUpLeg
		{
			OFFSET 18.735201 -5.666702 -4.541200
			CHANNELS 3 Xrotation Yrotation Zrotation
			JOINT LeftLeg
			{
				OFFSET -0.021200 -31.938179 0.493100
				CHANNELS 3 Xrotation Yrotation Zrotation
				JOINT LeftFoot
				{
					OFFSET 0.021200 -31.938179 -4.336299
					CHANNELS 3 Xrotation Yrotation Zrotation
					JOINT LeftToeBase
					{
						OFFSET 0.943001 -26.722000 15.023500
						CHANNELS 3 Xrotation Yrotation Zrotation
						End Site
						{
							OFFSET 0 0 0
						}
					}
				}
			}
		}
	}
	JOINT RightUpLeg_virtual
	{
		OFFSET 0.000000 0.000000 0.000000
		CHANNELS 3 Xrotation Yrotation Zrotation
		JOINT RightUpLeg
		{
			OFFSET -18.735201 -5.666702 -4.541200
			CHANNELS 3 Xrotation Yrotation Zrotation
			JOINT RightLeg
			{
				OFFSET 0.018946 -31.938133 0.493100
				CHANNELS 3 Xrotation Yrotation Zrotation
				JOINT RightFoot
				{
					OFFSET -0.018946 -31.938126 -4.336299
					CHANNELS 3 Xrotation Yrotation Zrotation
					JOINT RightToeBase
					{
						OFFSET -0.943001 -26.722004 15.023500
						CHANNELS 3 Xrotation Yrotation Zrotation
						End Site
						{
							OFFSET 0 0 0
						}
					}
				}
			}
		}
	}
	JOINT Hips_virtual
	{
		OFFSET 0.000000 0.000000 0.000000
		CHANNELS 3 Xrotation Yrotation Zrotation
		JOINT Hips
		{
			OFFSET -0.000000 -0.000000 -0.000000
			CHANNELS 3 Xrotation Yrotation Zrotation
			JOINT Spine
			{
				OFFSET 0.000000 10.199997 -0.299500
				CHANNELS 3 Xrotation Yrotation Zrotation
				JOINT Spine1
				{
					OFFSET 0.000000 11.900002 -1.516600
					CHANNELS 3 Xrotation Yrotation Zrotation
					JOINT Spine2
					{
						OFFSET 0.000000 13.600006 -2.842500
						CHANNELS 3 Xrotation Yrotation Zrotation
						JOINT Neck_virtual
						{
							OFFSET 0.000000 0.000000 0.000000
							CHANNELS 3 Xrotation Yrotation Zrotation
							JOINT Neck
							{
								OFFSET 0.000000 9.624100 -2.890100
								CHANNELS 3 Xrotation Yrotation Zrotation
								JOINT Head
								{
									OFFSET 0.000000 14.068802 -1.351900
									CHANNELS 3 Xrotation Yrotation Zrotation
									End Site
									{
										OFFSET 0 0 0
									}
								}
							}
						}
						JOINT LeftShoulder_virtual
						{
							OFFSET 0.000000 0.000000 0.000000
							CHANNELS 3 Xrotation Yrotation Zrotation
							JOINT LeftShoulder
							{
								OFFSET 15.263000 10.923401 -0.547700
								CHANNELS 3 Xrotation Yrotation Zrotation
								JOINT LeftArm
								{
									OFFSET 25.438599 -2.830597 -13.032500
									CHANNELS 3 Xrotation Yrotation Zrotation
									JOINT LeftForeArm
									{
										OFFSET 29.960503 0.000000 0.000000
										CHANNELS 3 Xrotation Yrotation Zrotation
										JOINT LeftHand
										{
											OFFSET 27.849251 0.000000 0.000000
											CHANNELS 3 Xrotation Yrotation Zrotation
											End Site
											{
												OFFSET 0 0 0
											}
										}
									}
								}
							}
						}
						JOINT RightShoulder_virtual
						{
							OFFSET 0.000000 0.000000 0.000000
							CHANNELS 3 Xrotation Yrotation Zrotation
							JOINT RightShoulder
							{
								OFFSET -15.263000 10.923401 -0.547700
								CHANNELS 3 Xrotation Yrotation Zrotation
								JOINT RightArm
								{
									OFFSET -25.438599 -2.830597 -13.032500
									CHANNELS 3 Xrotation Yrotation Zrotation
									JOINT RightForeArm
									{
										OFFSET -29.960503 0.000000 0.000000
										CHANNELS 3 Xrotation Yrotation Zrotation
										JOINT RightHand
										{
											OFFSET -27.849251 0.000000 0.000000
											CHANNELS 3 Xrotation Yrotation Zrotation
											End Site
											{
												OFFSET 0 0 0
											}
										}
									}
								}
							}
						}
					}
				}
			}
		}
	}
}
MOTION
Frames: 8
Frame Time: 0.03333333
99.050735 83.698120 199.278168 0.000000 0.000000 0.000000 -102.421453 -72.516781 177.790234 -70.943153 12.491257 31.105347 93.093996 1.216637 -9.100413 20.824393 -8.396643 -3.562803 0.000000 0.000000 0.000000 -102.421453 -72.516781 177.790234 -58.429639 28.206099 -59.789386 82.266637 9.563219 -0.831129 -7.135383 -0.742429 21.702434 0.000000 0.000000 0.000000 -102.421453 -72.516781 177.790234 0.000000 0.000001 0.000000 11.382449 1.840176 4.030524 2.771602 9.957203 10.412055 0.000000 0.000000 0.000000 -0.882308 2.661897 7.798888 7.598923 2.824273 3.373796 0.000000 0.000000 0.000000 -0.882308 2.661897 7.798888 -0.098469 -5.977416 0.627772 9.798809 -4.593816 -1.481032 -0.000011 -29.759585 0.000001 0.000000 0.000000 0.000000 -0.882308 2.661897 7.798888 0.821615 0.232457 16.066167 -41.494270 7.833426 12.026875 -0.000001 18.396537 -0.000011 0.000000 0.000000 0.000000 
105.033127 78.483147 207.448669 0.000000 0.000000 0.000000 -100.689269 -65.856124 177.085741 -69.971736 14.058383 33.735445 93.784788 0.729830 -9.235816 18.447832 -10.536775 -5.131960 0.000000 0.000000 0.000000 -100.689269 -65.856124 177.085741 -63.553408 29.323518 -54.160801 75.553825 8.275123 -2.209483 -0.290641 0.365994 25.201861 0.000000 0.000000 0.000000 -100.689269 -65.856124 177.085741 0.000000 0.000001 0.000000 11.548387 1.944776 2.096955 4.854284 11.245307 9.491957 0.000000 0.000000 0.000000 -0.264526 4.650232 6.859579 7.118204 2.743579 2.998163 0.000000 0.000000 0.000000 -0.264526 4.650232 6.859579 0.094778 -6.199197 -0.123044 9.665284 -8.508382 -0.913032 -0.000000 -16.045873 0.000006 0.000000 0.000000 0.000000 -0.264526 4.650232 6.859579 0.702718 0.170142 17.086861 -42.474334 9.627227 15.642597 0.000005 21.324549 -0.000005 0.000000 0.000000 0.000000 
111.102898 71.694000 215.403656 0.000000 0.000000 0.000000 -98.931848 -65.623385 175.898654 -71.352917 12.949932 30.249385 95.282341 1.114854 -8.224811 18.701078 -9.094160 -3.971442 0.000000 0.000000 0.000000 -98.931848 -65.623385 175.898654 -64.000990 27.129216 -55.197214 68.270698 7.581641 -3.516486 6.772332 2.350363 29.952620 0.000000 0.000000 0.000000 -98.931848 -65.623385 175.898654 0.000000 -0.000001 0.000000 11.752258 1.499203 1.472789 5.957495 11.339477 9.012858 0.000000 0.000000 0.000000 0.073766 4.191046 6.295746 6.443433 2.599916 2.644406 0.000000 0.000000 0.000000 0.073766 4.191046 6.295746 0.268091 -6.237657 -0.973500 7.893504 -4.110898 1.992688 0.000007 -21.678773 0.000001 0.000000 0.000000 0.000000 0.073766 4.191046 6.295746 0.787630 0.240687 18.556507 -42.487923 7.719447 18.634658 -0.000018 29.131276 -0.000010 0.000000 0.000000 0.000000 
118.011078 62.515751 224.713745 0.000000 0.000000 0.000000 -100.137636 -62.934565 171.151317 -73.564757 10.367301 25.208512 95.166836 3.808792 -6.491834 21.948019 -7.685374 -4.499393 0.000000 0.000000 0.000000 -100.137636 -62.934565 171.151317 -70.659905 26.287767 -51.431109 60.491290 6.780557 -6.331298 16.295906 6.979209 32.655350 0.000000 0.000000 0.000000 -100.137636 -62.934565 171.151317 0.000000 0.000001 0.000000 12.017132 1.195814 2.181810 6.471734 11.084017 8.784411 0.000000 0.000000 0.000000 0.445381 2.770601 5.891444 6.048208 2.438491 2.384244 0.000000 0.000000 0.000000 0.445381 2.770601 5.891444 0.150620 -6.043553 -3.147663 4.885610 7.041737 4.864242 0.000005 -28.737048 0.000003 0.000000 0.000000 0.000000 0.445381 2.770601 5.891444 0.910764 0.309279 19.874512 -41.661155 4.331586 22.138648 -0.000000 40.042865 -0.000004 0.000000 0.000000 0.000000 
127.774635 49.110229 237.605988 0.000000 0.000000 0.000000 -103.837044 -48.414457 165.731972 -75.825741 8.727803 20.138212 85.322819 7.741270 -4.298329 30.268567 -2.922193 -12.350336 0.000000 0.000000 0.000000 -103.837044 -48.414457 165.731972 -91.676992 26.297760 -31.997114 51.643877 3.554364 -7.214148 29.010754 8.278719 28.218836 0.000000 0.000000 0.000000 -103.837044 -48.414457 165.731972 0.000000 -0.000002 0.000001 12.358928 1.715030 3.168493 6.776506 10.711442 8.774128 0.000000 0.000000 0.000000 1.101995 1.953581 6.037221 6.128538 2.178891 2.197613 0.000000 0.000000 0.000000 1.101995 1.953581 6.037221 -0.402354 -5.311634 -7.757074 -1.431231 31.188471 3.323698 -0.000016 -60.418323 -0.000004 0.000000 0.000000 0.000000 1.101995 1.953581 6.037221 0.867091 0.505541 22.720180 -41.589302 -1.043957 23.666667 -0.000008 53.515140 -0.000004 0.000000 0.000000 0.000000 
138.593399 34.085911 252.264526 0.000000 0.000000 0.000000 -104.155720 -28.336997 164.607450 -76.222589 4.995267 22.500638 72.421650 12.894126 -3.698801 40.204488 0.473063 -19.538741 0.000000 0.000000 0.000000 -104.155720 -28.336997 164.607450 -110.167120 16.984205 -9.561163 45.391508 -0.456454 -5.609463 36.466438 4.965153 15.172516 0.000000 0.000000 0.000000 -104.155720 -28.336997 164.607450 0.000001 0.000000 0.000001 12.712249 2.442533 3.673569 6.942544 10.336712 9.288593 0.000000 0.000000 0.000000 2.164715 2.666129 7.069458 7.010115 1.707552 2.062270 0.000000 0.000000 0.000000 2.164715 2.666129 7.069458 0.627038 -4.278463 -6.424863 4.587708 39.001610 -16.318287 -0.000401 -83.418193 -0.000361 0.000000 0.000000 0.000000 2.164715 2.666129 7.069458 0.796487 1.040677 23.150843 -41.751580 -10.010172 22.002076 -0.000024 63.321215 0.000024 0.000000 0.000000 0.000000 
147.501755 23.762680 264.523956 0.000000 0.000000 0.000000 -101.001914 -8.240016 166.883569 -72.855838 5.257622 36.233850 68.940064 9.066099 -4.596479 37.814396 1.245168 -28.821595 0.000000 0.000000 0.000000 -101.001914 -8.240016 166.883569 -109.147304 6.719903 7.927159 24.446009 0.916524 -3.927796 55.270533 3.239526 7.796384 0.000000 0.000000 0.000000 -101.001914 -8.240016 166.883569 -0.000001 0.000000 -0.000001 13.026735 2.235458 3.952485 4.897581 9.699484 10.877730 0.000000 0.000000 0.000000 2.427269 4.340829 8.169462 7.762244 1.149272 1.981406 0.000000 0.000000 0.000000 2.427269 4.340829 8.169462 4.001237 -2.918585 6.646601 14.465816 4.457907 -38.232708 -0.000018 -68.941197 -0.000037 0.000000 0.000000 0.000000 2.427269 4.340829 8.169462 0.398659 6.571687 16.618960 -35.135695 -25.520642 24.384815 -0.000071 76.653287 0.000071 0.000000 0.000000 0.000000 
150.623978 24.508797 269.674500 0.000000 0.000000 0.000000 -95.065394 -2.049829 168.218598 -68.181981 5.649255 52.303287 85.179282 2.133156 -6.117546 19.024607 -7.344082 -27.293491 0.000000 0.000000 0.000000 -95.065394 -2.049829 168.218598 -128.204112 2.438871 15.253621 57.948896 1.770321 -3.785900 51.086871 2.280885 10.924901 0.000000 0.000000 0.000000 -95.065394 -2.049829 168.218598 0.000000 0.000000 0.000000 12.931496 1.327692 4.099743 1.486203 8.382911 10.399057 0.000000 0.000000 0.000000 4.563838 6.015374 7.511034 8.453047 0.473052 1.966462 0.000000 0.000000 0.000000 4.563838 6.015374 7.511034 2.644025 -3.061116 -3.696369 21.630603 -17.877670 -21.087697 0.000002 -52.501530 -0.000007 0.000000 0.000000 0.000000 4.563838 6.015374 7.511034 0.657947 2.536944 18.328932 -29.791912 -21.345325 27.246465 -0.000070 77.978542 0.000060 0.000000 0.000000 0.000000 
